# xmcd
#
# Track frame offsets:
#	150
#	19047
#	39373
#	54896
#	71484
#	91774
#	108316
#	125804
#	143894
#	157115
#
# Disc length: 2322 seconds
#
# Revision: 0
# Processed by: cddbd v1.5PL3 Copyright (c) Steve Scherf et al.
# Submitted via: dBpowerAMP V4.0
#
DISCID=7f09100a
DTITLE=John Michael Montgomery - Letters From Home
DYEAR=2004
DGENRE=Country
TTITLE0=Good Ground
TTITLE1=Letters From Home
TTITLE2=That's What I'm Talking About
TTITLE3=Look At Me Now
TTITLE4=Goes Good With Beer
TTITLE5=Cool
TTITLE6=It Rocked
TTITLE7=That Changes Everything
TTITLE8=Break This Chain
TTITLE9=Little Devil
EXTD=
EXTT0=
EXTT1=
EXTT2=
EXTT3=
EXTT4=
EXTT5=
EXTT6=
EXTT7=
EXTT8=
EXTT9=
PLAYORDER=
